<?xml version="1.0" encoding="UTF-8"?>
<svg id="Layer_1" xmlns="http://www.w3.org/2000/svg" xmlns:xlink="http://www.w3.org/1999/xlink" version="1.1" viewBox="0 0 311.8 113.4">
  <!-- Generator: Adobe Illustrator 29.2.1, SVG Export Plug-In . SVG Version: 2.1.0 Build 116)  -->
  <defs>
    <style>
      .st0 {
        fill: none;
      }

      .st1 {
        fill: url(#linear-gradient9);
      }

      .st1, .st2 {
        opacity: .6;
      }

      .st2 {
        fill: url(#linear-gradient4);
      }

      .st3 {
        fill: url(#linear-gradient5);
      }

      .st3, .st4 {
        opacity: .6;
      }

      .st5 {
        fill: url(#linear-gradient8);
      }

      .st5, .st6 {
        opacity: .5;
      }

      .st6 {
        fill: url(#linear-gradient3);
      }

      .st7 {
        fill: url(#linear-gradient2);
      }

      .st7, .st8 {
        opacity: .5;
      }

      .st8 {
        fill: url(#linear-gradient7);
      }

      .st9 {
        fill: url(#linear-gradient1);
      }

      .st9, .st10 {
        opacity: .4;
      }

      .st10 {
        fill: url(#linear-gradient6);
      }

      .st11 {
        fill: url(#linear-gradient);
      }

      .st4 {
        fill: url(#linear-gradient10);
      }

      .st12 {
        fill: #575756;
      }

      .st13 {
        clip-path: url(#clippath);
      }
    </style>
    <linearGradient id="linear-gradient" x1="49.4" y1="103.8" x2="49.4" y2="5.8" gradientUnits="userSpaceOnUse">
      <stop offset="0" stop-color="#f2e500"/>
      <stop offset=".2" stop-color="#efe300"/>
      <stop offset=".3" stop-color="#e6e003"/>
      <stop offset=".3" stop-color="#d7da07"/>
      <stop offset=".4" stop-color="#c2d20d"/>
      <stop offset=".5" stop-color="#a7c715"/>
      <stop offset=".6" stop-color="#85b91e"/>
      <stop offset=".6" stop-color="#5eaa29"/>
      <stop offset=".6" stop-color="#4da32f"/>
      <stop offset=".7" stop-color="#479b40"/>
      <stop offset=".7" stop-color="#3b8a69"/>
      <stop offset=".8" stop-color="#327d89"/>
      <stop offset=".9" stop-color="#2b73a1"/>
      <stop offset=".9" stop-color="#276daf"/>
      <stop offset="1" stop-color="#266cb4"/>
    </linearGradient>
    <clipPath id="clippath">
      <path class="st0" d="M90.5,73.3l-38.8,29.7c-1.3,1-3.2,1-4.5,0l-38.8-29.7c-.9-.7-1.5-1.8-1.5-3V9.5c0-2.1,1.7-3.7,3.7-3.7h77.7c2.1,0,3.7,1.7,3.7,3.7v60.8c0,1.2-.5,2.3-1.5,3Z"/>
    </clipPath>
    <linearGradient id="linear-gradient1" x1="-412.6" y1="61.7" x2="-316.1" y2="26.6" gradientTransform="translate(-315.3) rotate(-180) scale(1 -1)" gradientUnits="userSpaceOnUse">
      <stop offset="0" stop-color="#fff"/>
      <stop offset=".3" stop-color="#fcfdfe"/>
      <stop offset=".5" stop-color="#f5f8fb"/>
      <stop offset=".6" stop-color="#e9f0f7"/>
      <stop offset=".7" stop-color="#d7e4f1"/>
      <stop offset=".7" stop-color="#bfd4e9"/>
      <stop offset=".8" stop-color="#a3c0df"/>
      <stop offset=".9" stop-color="#81a9d3"/>
      <stop offset=".9" stop-color="#598ec5"/>
      <stop offset="1" stop-color="#2d71b6"/>
      <stop offset="1" stop-color="#266cb4"/>
    </linearGradient>
    <linearGradient id="linear-gradient2" x1="-405.4" y1="66" x2="-314.2" y2="29.2" xlink:href="#linear-gradient1"/>
    <linearGradient id="linear-gradient3" x1="-398.6" y1="70.2" x2="-312.2" y2="31.7" gradientTransform="translate(-315.3) rotate(-180) scale(1 -1)" gradientUnits="userSpaceOnUse">
      <stop offset="0" stop-color="#fff"/>
      <stop offset=".4" stop-color="#fdfdfe"/>
      <stop offset=".5" stop-color="#f6f9fc"/>
      <stop offset=".6" stop-color="#eaf1f7"/>
      <stop offset=".7" stop-color="#d9e5f2"/>
      <stop offset=".8" stop-color="#c3d6ea"/>
      <stop offset=".8" stop-color="#a8c4e1"/>
      <stop offset=".9" stop-color="#87aed5"/>
      <stop offset=".9" stop-color="#6294c8"/>
      <stop offset="1" stop-color="#3978ba"/>
      <stop offset="1" stop-color="#266cb4"/>
    </linearGradient>
    <linearGradient id="linear-gradient4" x1="-278.7" y1="74.6" x2="-196.2" y2="34.3" gradientTransform="translate(-201.6) rotate(-180) scale(1 -1)" xlink:href="#linear-gradient3"/>
    <linearGradient id="linear-gradient5" x1="-270.9" y1="77.3" x2="-193.9" y2="36.3" gradientTransform="translate(-201.6) rotate(-180) scale(1 -1)" xlink:href="#linear-gradient3"/>
    <linearGradient id="linear-gradient6" x1="-648.6" y1="61.7" x2="-552.1" y2="26.6" gradientTransform="translate(650.1)" xlink:href="#linear-gradient1"/>
    <linearGradient id="linear-gradient7" x1="-641.4" y1="66" x2="-550.2" y2="29.2" gradientTransform="translate(650.1)" xlink:href="#linear-gradient1"/>
    <linearGradient id="linear-gradient8" x1="-634.6" y1="70.2" x2="-548.2" y2="31.7" gradientTransform="translate(650.1)" xlink:href="#linear-gradient3"/>
    <linearGradient id="linear-gradient9" x1="-514.7" y1="74.6" x2="-432.2" y2="34.3" gradientTransform="translate(536.4)" xlink:href="#linear-gradient3"/>
    <linearGradient id="linear-gradient10" x1="-506.9" y1="77.3" x2="-429.9" y2="36.3" gradientTransform="translate(536.4)" xlink:href="#linear-gradient3"/>
  </defs>
  <g>
    <g>
      <path class="st12" d="M125.6,104.3c-1.4,0-2.9-.8-3.6-1.7v1c0,.3-.2.4-.6.4h-1c-.4,0-.5-.1-.5-.5v-18.1c0-.4,0-.5.4-.6,1.4-.2,1.4-.2,1.5-.2.3,0,.4.1.4.5v7c.8-.8,2.3-1.6,3.9-1.6s2.6.5,3.5,1.2c1.4,1.3,2.1,3.3,2.1,5.6,0,3.7-1.9,6.9-6,6.9ZM125.6,92.5c-1.3,0-2.6.7-3.5,1.6v6.5c.7,1,1.9,1.8,3.2,1.8,2.7,0,3.8-2.3,3.8-4.9s-1-5-3.6-5Z"/>
      <path class="st12" d="M136.2,91.3v.9c.7-.9,1.7-1.7,3.2-1.7s.5,0,.8,0c.2,0,.2.3.2.5l-.2,1.2c0,.2-.1.3-.3.3s-.4,0-.9,0c-1,0-2,.6-2.7,1.6v9.3c0,.4-.2.6-.5.6h-1.3c-.4,0-.5-.2-.5-.6v-12c0-.4.2-.5.5-.5h1.2c.4,0,.5.1.5.5Z"/>
      <path class="st12" d="M143.4,88.9c-.7,0-1.4-.5-1.4-1.3s.7-1.3,1.4-1.3,1.4.5,1.4,1.3-.7,1.3-1.4,1.3ZM144.5,103.4c0,.4-.2.6-.5.6h-1.3c-.4,0-.5-.2-.5-.6v-12c0-.4.2-.5.5-.5h1.3c.4,0,.5.2.5.5v12Z"/>
      <path class="st12" d="M152.7,110c-1.3,0-2.7-.4-3.9-.9-.2-.1-.3-.2-.3-.4s0-.2,0-.2l.3-.8c0-.2.2-.4.4-.4s.2,0,.3,0c1,.4,2.2.8,3.1.8,3,0,3.9-1.6,3.9-4.4v-1.3c-.9,1-2.5,1.6-3.9,1.6-3.9,0-5.6-3-5.6-6.6s2.1-6.9,6-6.9,2.8.6,3.6,1.6v-.8c0-.4.2-.5.6-.5h1.2c.4,0,.5.2.5.5v11.9c0,4.2-1.7,6.7-6.1,6.7ZM156.5,94.3c-.6-1.1-1.9-1.9-3.3-1.9-2.8,0-3.8,2.4-3.8,4.9s.9,4.8,3.6,4.8,2.8-.7,3.5-1.7v-6.1Z"/>
      <path class="st12" d="M172.9,103.5c0,.4-.1.5-.4.5h-1.4c-.3,0-.5-.2-.5-.5v-7.7c0-1.9-.5-3.3-2.6-3.3s-2.8.7-3.8,1.6v9.4c0,.4-.1.5-.5.5h-1.4c-.3,0-.4-.2-.4-.5v-18.1c0-.4.2-.5.5-.6,1-.1,1.3-.2,1.4-.2.2,0,.4.1.4.5v7c1.2-1.1,2.9-1.6,4.5-1.6,3.1,0,4.3,1.9,4.3,4.9v8.1Z"/>
      <path class="st12" d="M180.7,102.4c.6,0,1.3-.2,1.7-.3.2,0,.4,0,.5.2l.2.9c0,.3,0,.4-.4.5-.6.2-1.6.5-2.5.5s-2.3-.3-3-1c-.8-.9-.8-2-.8-3.6v-7.1h-1.5c-.4,0-.4,0-.4-.4v-.8c0-.3.1-.4.4-.4h1.6v-3.1c0-.4.1-.5.5-.5l1.3-.2h.1c.3,0,.4.2.4.5v3.3h3.2c.2,0,.4,0,.4.4v.9c0,.3-.1.4-.4.4h-3.2v7.3c0,.9,0,1.6.5,2.1.3.3.8.5,1.5.5Z"/>
      <path class="st12" d="M195.4,97c0,.6-.1.8-.8.8h-8.4c0,2.6,1.6,4.6,4.3,4.6s2.3-.2,3.3-.6c.2,0,.5-.1.6.2l.3,1c0,.2,0,.4-.3.5-1.2.5-2.9.8-4.2.8-4.2,0-6.4-2.7-6.4-6.9s2.4-6.9,6.3-6.9,2.8.6,3.7,1.5c1.1,1.1,1.6,2.7,1.6,4.5v.5ZM193.1,96.2v-.4c0-1.9-1-3.5-3.1-3.5s-3.5,1.8-3.8,3.8h6.8Z"/>
      <path class="st12" d="M200,91.3v.9c.7-.9,1.7-1.7,3.2-1.7s.5,0,.8,0c.2,0,.2.3.2.5l-.2,1.2c0,.2-.1.3-.3.3s-.4,0-.9,0c-1,0-2,.6-2.7,1.6v9.3c0,.4-.2.6-.5.6h-1.3c-.4,0-.5-.2-.5-.6v-12c0-.4.2-.5.5-.5h1.2c.4,0,.5.1.5.5Z"/>
      <path class="st12" d="M216.9,102.4c.6,0,1.3-.2,1.7-.3.2,0,.4,0,.5.2l.2.9c0,.3,0,.4-.4.5-.6.2-1.6.5-2.5.5s-2.3-.3-3-1c-.8-.9-.8-2-.8-3.6v-7.1h-1.5c-.4,0-.4,0-.4-.4v-.8c0-.3.1-.4.4-.4h1.6v-3.1c0-.4.1-.5.5-.5l1.3-.2h.1c.3,0,.4.2.4.5v3.3h3.2c.2,0,.4,0,.4.4v.9c0,.3-.1.4-.4.4h-3.2v7.3c0,.9,0,1.6.5,2.1.3.3.8.5,1.5.5Z"/>
      <path class="st12" d="M226.1,104.3c-4.2,0-6.1-3-6.1-6.9s2.2-6.8,6.3-6.8,6.1,2.9,6.1,6.9-2.2,6.9-6.3,6.9ZM226.3,92.3c-2.9,0-3.8,2.6-3.8,5s.8,5.1,3.7,5.1,3.9-2.5,3.9-5-.9-5.1-3.8-5.1Z"/>
      <path class="st12" d="M239.9,110c-1.3,0-2.7-.4-3.9-.9-.2-.1-.3-.2-.3-.4s0-.2,0-.2l.3-.8c0-.2.2-.4.4-.4s.2,0,.3,0c1,.4,2.2.8,3.1.8,3,0,3.9-1.6,3.9-4.4v-1.3c-.9,1-2.5,1.6-3.9,1.6-3.9,0-5.6-3-5.6-6.6s2.1-6.9,6-6.9,2.8.6,3.6,1.6v-.8c0-.4.2-.5.6-.5h1.2c.4,0,.5.2.5.5v11.9c0,4.2-1.7,6.7-6.1,6.7ZM243.7,94.3c-.6-1.1-1.9-1.9-3.3-1.9-2.8,0-3.8,2.4-3.8,4.9s.9,4.8,3.6,4.8,2.8-.7,3.5-1.7v-6.1Z"/>
      <path class="st12" d="M260,97c0,.6-.1.8-.8.8h-8.4c0,2.6,1.6,4.6,4.3,4.6s2.3-.2,3.3-.6c.2,0,.5-.1.6.2l.3,1c0,.2,0,.4-.3.5-1.2.5-2.9.8-4.2.8-4.2,0-6.4-2.7-6.4-6.9s2.4-6.9,6.3-6.9,2.8.6,3.7,1.5c1.1,1.1,1.6,2.7,1.6,4.5v.5ZM257.7,96.2v-.4c0-1.9-1-3.5-3.1-3.5s-3.5,1.8-3.8,3.8h6.8Z"/>
      <path class="st12" d="M267.1,102.4c.6,0,1.3-.2,1.7-.3.2,0,.4,0,.5.2l.2.9c0,.3,0,.4-.4.5-.6.2-1.6.5-2.5.5s-2.3-.3-3-1c-.8-.9-.8-2-.8-3.6v-7.1h-1.5c-.4,0-.4,0-.4-.4v-.8c0-.3.1-.4.4-.4h1.6v-3.1c0-.4.1-.5.5-.5l1.3-.2h.1c.3,0,.4.2.4.5v3.3h3.2c.2,0,.4,0,.4.4v.9c0,.3-.1.4-.4.4h-3.2v7.3c0,.9,0,1.6.5,2.1.3.3.8.5,1.5.5Z"/>
      <path class="st12" d="M282.3,103.5c0,.4-.1.5-.4.5h-1.4c-.3,0-.5-.2-.5-.5v-7.7c0-1.9-.5-3.3-2.6-3.3s-2.8.7-3.8,1.6v9.4c0,.4-.1.5-.5.5h-1.4c-.3,0-.4-.2-.4-.5v-18.1c0-.4.2-.5.5-.6,1-.1,1.3-.2,1.4-.2.2,0,.4.1.4.5v7c1.2-1.1,2.9-1.6,4.5-1.6,3.1,0,4.3,1.9,4.3,4.9v8.1Z"/>
      <path class="st12" d="M296.3,97c0,.6-.1.8-.8.8h-8.4c0,2.6,1.6,4.6,4.3,4.6s2.3-.2,3.3-.6c.2,0,.5-.1.6.2l.3,1c0,.2,0,.4-.3.5-1.2.5-2.9.8-4.2.8-4.2,0-6.4-2.7-6.4-6.9s2.4-6.9,6.3-6.9,2.8.6,3.7,1.5c1.1,1.1,1.6,2.7,1.6,4.5v.5ZM294,96.2v-.4c0-1.9-1-3.5-3.1-3.5s-3.5,1.8-3.8,3.8h6.8Z"/>
      <path class="st12" d="M300.8,91.3v.9c.7-.9,1.7-1.7,3.2-1.7s.5,0,.8,0c.2,0,.2.3.2.5l-.2,1.2c0,.2-.1.3-.3.3s-.4,0-.9,0c-1,0-2,.6-2.7,1.6v9.3c0,.4-.2.6-.5.6h-1.3c-.4,0-.5-.2-.5-.6v-12c0-.4.2-.5.5-.5h1.2c.4,0,.5.1.5.5Z"/>
    </g>
    <path class="st12" d="M183.2,7.8l-18.5,62.2c-.4,1.4-1.2,2-2.5,2h-4.5c-1.2,0-2-.5-2.5-2.1l-13.1-49.8h0l-13.2,49.8c-.5,1.6-1.2,2.1-2.6,2.1h-4.4c-1.3,0-1.9-.3-2.5-2.2l-18.2-61.6c0-.4-.2-.8-.2-1.2,0-.7.4-1.2,1.4-1.2h6c1.8,0,2.5.5,2.9,2l13.5,50.6h0l13-50.6c.4-1.6,1.2-1.9,2.7-1.9h4.1c1.3,0,2,.7,2.3,1.8l13.3,50.7h.2l13.6-50.6c.5-1.6,1.2-2,2.7-2h5.2c1.1,0,1.4.5,1.4,1.2s0,.6-.2.9Z"/>
    <path class="st12" d="M228.5,70.2c0,1.2-.5,1.7-1.9,1.7h-33.5c-1.6,0-2-.4-2-2V7.7c0-1.3.5-1.9,1.8-1.9h33.8c1.4,0,1.6.7,1.5,1.8l-.4,3.7c0,1.3-1,1.5-2.6,1.5h-25.3v21h22.6c1.3,0,1.9.6,1.9,1.7v3.5c0,1.3-.5,1.7-1.8,1.7h-22.7v24.2h26.5c1.4,0,2,.5,2,1.6v3.7Z"/>
    <path class="st12" d="M285.7,70c0,1.3-.6,2-1.8,2h-5.2c-1.2,0-1.9-.7-1.9-2v-29.2h-30.9v29.2c0,1.3-.7,2-1.9,2h-5.1c-1.2,0-1.9-.7-1.9-2V7.7c0-1.3.7-1.9,1.9-1.9h5.1c1.2,0,1.9.6,1.9,1.9v26.1h30.9V7.7c0-1.3.7-1.9,1.9-1.9h5.2c1.2,0,1.8.6,1.8,1.9v62.3Z"/>
    <path class="st12" d="M303.4,72h-5.5c-.9,0-1.6-.7-1.6-1.7V6.9c0-.7.4-1.3,1.1-1.6l5.5-1.9c1-.4,2.1.4,2.1,1.6v65.3c0,.9-.7,1.7-1.6,1.7Z"/>
  </g>
  <g>
    <path class="st11" d="M90.5,73.3l-38.8,29.7c-1.3,1-3.2,1-4.5,0l-38.8-29.7c-.9-.7-1.5-1.8-1.5-3V9.5c0-2.1,1.7-3.7,3.7-3.7h77.7c2.1,0,3.7,1.7,3.7,3.7v60.8c0,1.2-.5,2.3-1.5,3Z"/>
    <g class="st13">
      <g>
        <polygon class="st9" points="8 6.8 93.1 73.1 84.7 79.6 8 6.8"/>
        <polygon class="st7" points="8 6.8 84.7 79.6 76.1 86.4 8 6.8"/>
        <polygon class="st6" points="8 6.8 76.1 86.4 67.3 93 8 6.8"/>
        <polygon class="st2" points="8 6.8 67.8 93.7 59.1 99.8 8 6.8"/>
        <polygon class="st3" points="8 6.8 58.2 98.2 49.8 104.7 8 6.8"/>
      </g>
      <g>
        <polygon class="st10" points="90.8 6.8 5.7 73.1 14.1 79.6 90.8 6.8"/>
        <polygon class="st8" points="90.8 6.8 14.1 79.6 22.7 86.4 90.8 6.8"/>
        <polygon class="st5" points="90.8 6.8 22.7 86.4 31.5 93 90.8 6.8"/>
        <polygon class="st1" points="90.8 6.8 31 93.7 39.7 99.8 90.8 6.8"/>
        <polygon class="st4" points="90.8 6.8 40.6 98.2 49 104.7 90.8 6.8"/>
      </g>
    </g>
  </g>
</svg>